<svg width="50" height="50" viewBox="0 0 50 50" fill="none" xmlns="http://www.w3.org/2000/svg">
<path d="M13.4658 9.65891C10.4023 12.069 8.08421 15.3793 6.9165 19.1969C22.6997 29.5951 23.572 42.9873 23.6172 44.1203C24.0829 44.1637 24.5555 44.188 25.0299 44.1967C26.9222 21.5532 16.8803 12.1629 13.4658 9.65891Z" fill="#79197E"/>
<path d="M6.12765 23.5376C6.0929 24.0085 6.07031 24.4829 6.07031 24.9625C6.07031 34.7455 14.1869 42.8292 23.6155 44.1185C19.7701 31.5204 10.0304 25.6002 6.12765 23.5376Z" fill="#933093"/>
<path d="M36.4917 9.65891C39.5552 12.069 41.8732 15.3793 43.0409 19.1969C27.2577 29.5951 26.3854 42.9873 26.3402 44.1203C25.8745 44.1637 25.4019 44.188 24.9275 44.1967C23.0369 21.5532 33.0772 12.1629 36.4917 9.65891Z" fill="#933093"/>
<path d="M43.8297 23.4386C43.8644 23.9095 43.887 24.3839 43.887 24.8635C43.887 34.6465 35.7704 42.8274 26.3418 44.1185C30.1872 31.5205 39.9269 25.5012 43.8297 23.4386Z" fill="#79197E"/>
<path d="M18.7239 6.96725C21.8534 7.85867 24.2844 10.4252 24.9777 13.6312V5.52325C22.7344 5.52325 20.6127 6.04282 18.7239 6.96725Z" fill="#FF9C00"/>
<path d="M24.9795 5.52325V13.6312C25.6728 10.4252 28.1055 7.85867 31.2333 6.96725C29.3445 6.04282 27.2228 5.52325 24.9795 5.52325Z" fill="#F58600"/>
</svg>
