<svg width="266" height="81" viewBox="0 0 266 81" fill="none" xmlns="http://www.w3.org/2000/svg">
<path d="M18.3054 13.4083C12.9366 17.7433 8.8711 23.6983 6.82056 30.5658C34.4917 49.2701 36.0218 73.359 36.1019 75.3942C36.9203 75.4717 37.7477 75.5128 38.5795 75.5311C41.8977 34.8004 24.2969 17.9122 18.3054 13.4083Z" fill="#79197E"/>
<path d="M5.44166 38.3688C5.37939 39.2175 5.33936 40.0708 5.33936 40.9333C5.33936 58.5288 19.573 73.0669 36.1019 75.3896C29.3587 52.729 12.2827 42.0786 5.44166 38.3688Z" fill="#933093"/>
<path d="M58.6801 13.4083C64.0489 17.7433 68.1144 23.6983 70.1649 30.5658C42.4938 49.2701 40.9636 73.359 40.8836 75.3942C40.0651 75.4717 39.2378 75.5128 38.406 75.5311C35.0878 34.8004 52.6931 17.9122 58.6801 13.4083Z" fill="#933093"/>
<path d="M71.5438 38.1954C71.6061 39.0441 71.6461 39.8974 71.6461 40.7598C71.6461 58.3553 57.4124 73.0715 40.8835 75.3941C47.6268 52.729 64.7027 41.9052 71.5438 38.1954Z" fill="#79197E"/>
<path d="M27.5261 8.56684C33.0105 10.1731 37.2762 14.7864 38.4905 20.5542V5.97041C34.5584 5.96584 30.8399 6.90585 27.5261 8.56684Z" fill="#FF9C00"/>
<path d="M38.4949 5.96584V20.5497C39.7092 14.7818 43.9748 10.1639 49.4593 8.56227C46.1499 6.90585 42.4269 5.96584 38.4949 5.96584Z" fill="#F58600"/>
<path d="M111.66 56.8815H97.3423V20.3169H109.116C117.02 20.3169 120.468 25.268 120.468 29.9999C120.468 33.6459 118.03 36.3108 115.375 37.4561C118.822 38.2182 122.745 41.4261 122.745 46.2174C122.745 53.2355 117.283 56.8815 111.66 56.8815ZM108.32 27.0111H104.98V35.0103H108.427C111.291 35.0103 113.093 33.541 113.093 30.8761C113.093 28.7496 111.607 27.0111 108.32 27.0111ZM109.699 41.6999H104.98V50.1873H110.335C113.146 50.1873 115.054 48.4442 115.054 45.9983C115.054 43.443 113.146 41.6999 109.699 41.6999Z" fill="black"/>
<path d="M139.47 20.3169H131.832V56.8815H139.47V20.3169Z" fill="black"/>
<path d="M175.659 56.8815L157.524 33.0481V56.8815H149.882V20.3169H157.524L175.183 43.4977V20.3169H182.82V56.8815H175.659Z" fill="black"/>
<path d="M215.882 56.8815L213.285 49.3705H199.972L197.374 56.8815H189.261L203.103 20.3169H210.158L224 56.8815H215.882ZM206.653 30.3832L202.356 42.6262H210.896L206.653 30.3832Z" fill="black"/>
<path d="M251.066 56.8815L241.623 43.1692H238.812V56.8815H231.175V20.3169H242.948C252.868 20.3169 254.776 28.1519 254.776 31.6336C254.776 36.256 252.232 39.3042 249.1 41.1568L260.661 56.8815H251.066ZM242.206 27.6089H238.812V36.1511H242.099C245.76 36.1511 247.139 34.1387 247.139 31.7978C247.139 29.2379 245.39 27.6089 242.206 27.6089Z" fill="black"/>
</svg>
