<svg width="21" height="21" viewBox="0 0 21 21" fill="none" xmlns="http://www.w3.org/2000/svg">
<g id="Group 11546">
<path id="Rectangle 2471" d="M1 6C1 4.34315 2.34315 3 4 3H18V17C18 18.6569 16.6569 20 15 20H4C2.34315 20 1 18.6569 1 17V6Z" fill="#78297D"/>
<path id="Vector" fill-rule="evenodd" clip-rule="evenodd" d="M5.07031 4.08711C3.57915 4.08711 2.37031 5.29594 2.37031 6.78711V15.7871C2.37031 17.2783 3.57915 18.4871 5.07031 18.4871H14.0703C15.5615 18.4871 16.7703 17.2783 16.7703 15.7871V6.14425C16.7703 5.64718 17.2161 5.28711 17.7132 5.28711C18.2102 5.28711 18.5703 5.64718 18.5703 6.14425V15.7871C18.5703 18.2724 16.5556 20.2871 14.0703 20.2871H5.07031C2.58503 20.2871 0.570312 18.2724 0.570312 15.7871V6.78711C0.570312 4.30183 2.58503 2.28711 5.07031 2.28711H15.5703C16.0674 2.28711 16.7703 2.6472 16.7703 3.14425C16.7703 3.6413 16.0674 4.08711 15.5703 4.08711H5.07031Z" fill="#480F4B"/>
<path id="Vector_2" fill-rule="evenodd" clip-rule="evenodd" d="M15.4286 1.36132C15.9338 0.856096 16.619 0.572266 17.3335 0.572266C18.048 0.572266 18.7332 0.856096 19.2384 1.36132C19.7436 1.86654 20.0275 2.55175 20.0275 3.26624C20.0275 3.98073 19.7436 4.66596 19.2384 5.17118L18.4857 5.92395C18.1103 6.29934 17.5016 6.29934 17.1263 5.92395L14.6757 3.47347C14.3004 3.09808 14.3004 2.48948 14.6757 2.11409L15.4286 1.36132ZM13.3164 4.83284C12.941 4.45746 12.3324 4.45746 11.957 4.83284L7.6687 9.1212C7.54551 9.24434 7.45812 9.39871 7.41587 9.56769L6.59904 12.8351C6.51714 13.1626 6.61312 13.5091 6.85187 13.7479C7.09062 13.9866 7.43713 14.0826 7.76469 14.0007L11.032 13.1839C11.201 13.1416 11.3554 13.0542 11.4785 12.931L15.7669 8.64271C16.1423 8.26735 16.1423 7.65871 15.7669 7.28333L13.3164 4.83284Z" fill="#F38920"/>
<rect id="Rectangle 2472" x="14.1602" y="2.41602" width="5.43912" height="2.49221" rx="0.5" transform="rotate(44 14.1602 2.41602)" fill="#480F4B"/>
</g>
</svg>
