<svg width="22" height="22" viewBox="0 0 22 22" fill="none" xmlns="http://www.w3.org/2000/svg">
<g id="Group 11502">
<g id="Group 11501">
<path id="Vector" fill-rule="evenodd" clip-rule="evenodd" d="M5.75 2.6C4.01031 2.6 2.6 4.01031 2.6 5.75V16.25C2.6 17.9897 4.01031 19.4 5.75 19.4H16.25C17.9897 19.4 19.4 17.9897 19.4 16.25V9.95C19.4 9.37008 19.8701 8.9 20.45 8.9C21.0299 8.9 21.5 9.37008 21.5 9.95V16.25C21.5 19.1495 19.1495 21.5 16.25 21.5H5.75C2.85051 21.5 0.5 19.1495 0.5 16.25V5.75C0.5 2.85051 2.85051 0.5 5.75 0.5H12.05C12.6299 0.5 13.1 0.970106 13.1 1.55C13.1 2.12989 12.6299 2.6 12.05 2.6H5.75Z" fill="#757575"/>
<path id="Vector_2" fill-rule="evenodd" clip-rule="evenodd" d="M16.4752 1.36192C17.0271 0.810044 17.7756 0.5 18.5561 0.5C19.3366 0.5 20.085 0.810044 20.6369 1.36192C21.1888 1.9138 21.4988 2.66231 21.4988 3.44278C21.4988 4.22326 21.1888 4.97177 20.6369 5.52365L19.8146 6.34595C19.4046 6.756 18.7397 6.756 18.3297 6.34595L15.6528 3.66915C15.2428 3.25909 15.2428 2.59428 15.6528 2.18422L16.4752 1.36192ZM14.1679 5.15407C13.7579 4.74402 13.0931 4.74402 12.683 5.15407L7.99865 9.83849C7.86409 9.97299 7.76863 10.1416 7.72247 10.3262L6.8302 13.8954C6.74074 14.2531 6.84559 14.6316 7.10639 14.8925C7.36718 15.1533 7.7457 15.2581 8.10352 15.1686L11.6726 14.2764C11.8572 14.2302 12.0258 14.1348 12.1603 14.0002L16.8448 9.3158C17.2548 8.90577 17.2548 8.24092 16.8448 7.83088L14.1679 5.15407Z" fill="#757575"/>
</g>
</g>
</svg>
