<svg width="24" height="24" viewBox="0 0 28 29" fill="none" xmlns="http://www.w3.org/2000/svg">
<g id="Bulk/Action/Arrow-down">
<g id="Vector">
<path d="M16.4717 18.1678L21.8261 12.9421C22.0434 12.7287 22.1654 12.4402 22.1654 12.1394C22.1654 11.8386 22.0434 11.5501 21.8261 11.3368C21.7177 11.2301 21.5887 11.1454 21.4465 11.0876C21.3044 11.0298 21.1519 11 20.9979 11C20.8439 11 20.6914 11.0298 20.5493 11.0876C20.4071 11.1454 20.2781 11.2301 20.1696 11.3368L14.8268 16.5739C14.7184 16.6806 14.5893 16.7653 14.4472 16.8231C14.305 16.8809 14.1526 16.9107 13.9986 16.9107C13.8446 16.9107 13.6921 16.8809 13.5499 16.8231C13.4078 16.7653 13.2788 16.6806 13.1703 16.5739L7.82749 11.3368C7.60937 11.1224 7.31293 11.0013 7.00337 11.0003C6.69381 10.9992 6.39649 11.1182 6.17682 11.3311C5.95716 11.5439 5.83313 11.8333 5.83204 12.1354C5.83094 12.4375 5.95287 12.7277 6.17099 12.9421L11.5255 18.1678C12.1817 18.8074 13.0712 19.1667 13.9986 19.1667C14.926 19.1667 15.8155 18.8074 16.4717 18.1678Z" fill="#757575"/>
</g>
</g>
</svg>
