<svg width="24" height="24" viewBox="0 0 28 28" fill="none" xmlns="http://www.w3.org/2000/svg">
<g id="Bulk/Misc/Book">
<g id="Union">
<path fill-rule="evenodd" clip-rule="evenodd" d="M9.33464 3.5H18.668C19.9052 3.50148 21.0913 3.99362 21.9662 4.86847C22.841 5.74332 23.3332 6.92944 23.3346 8.16667V21.2333C23.3332 22.4705 22.841 23.6567 21.9662 24.5315C21.0913 25.4064 19.9052 25.8985 18.668 25.9H8.4013C7.41116 25.9 6.46157 25.5067 5.76144 24.8065C5.0613 24.1064 4.66797 23.1568 4.66797 22.1667V8.16667C4.66945 6.92944 5.16159 5.74332 6.03644 4.86847C6.91129 3.99362 8.09741 3.50148 9.33464 3.5ZM8.4013 24.0333H18.668C19.4106 24.0333 20.1228 23.7383 20.6479 23.2132C21.173 22.6881 21.468 21.9759 21.468 21.2333V20.3H8.4013C7.90623 20.3 7.43144 20.4967 7.08137 20.8467C6.7313 21.1968 6.53464 21.6716 6.53464 22.1667C6.53464 22.6617 6.7313 23.1365 7.08137 23.4866C7.43144 23.8367 7.90623 24.0333 8.4013 24.0333Z" fill="#757575"/>
</g>
</g>
</svg>
