<svg width="24" height="24" viewBox="0 0 28 29" fill="none" xmlns="http://www.w3.org/2000/svg">
<g id="bx:world">
<path id="Vector" d="M13.9987 2.80273C7.5657 2.80273 2.33203 8.0364 2.33203 14.4694C2.33203 20.9024 7.5657 26.1361 13.9987 26.1361C20.4317 26.1361 25.6654 20.9024 25.6654 14.4694C25.6654 8.0364 20.4317 2.80273 13.9987 2.80273ZM4.66536 14.4694C4.66536 13.4206 4.84736 12.4137 5.1682 11.4722L6.9987 13.3027L9.33203 15.6361V17.9694L11.6654 20.3027L12.832 21.4694V23.7222C8.23653 23.1447 4.66536 19.2201 4.66536 14.4694ZM21.3837 20.1546C20.6219 19.5409 19.4669 19.1361 18.6654 19.1361V17.9694C18.6654 17.3506 18.4195 16.7571 17.9819 16.3195C17.5444 15.8819 16.9509 15.6361 16.332 15.6361H11.6654V12.1361C12.2842 12.1361 12.8777 11.8902 13.3153 11.4527C13.7529 11.0151 13.9987 10.4216 13.9987 9.80273V8.63607H15.1654C15.7842 8.63607 16.3777 8.39024 16.8153 7.95265C17.2529 7.51507 17.4987 6.92157 17.4987 6.30273V5.82323C20.9147 7.2104 23.332 10.5611 23.332 14.4694C23.3318 16.5282 22.6463 18.5284 21.3837 20.1546Z" fill="#757575"/>
</g>
</svg>
