<svg width="24" height="24" viewBox="0 0 28 29" fill="none" xmlns="http://www.w3.org/2000/svg">
<g id="carbon:image">
<path id="Vector" d="M16.625 12.5593C17.1442 12.5593 17.6517 12.4054 18.0834 12.1169C18.5151 11.8285 18.8515 11.4185 19.0502 10.9389C19.2489 10.4592 19.3008 9.93142 19.1996 9.42222C19.0983 8.91302 18.8483 8.44528 18.4812 8.07817C18.114 7.71106 17.6463 7.46105 17.1371 7.35977C16.6279 7.25848 16.1001 7.31046 15.6205 7.50914C15.1408 7.70782 14.7308 8.04428 14.4424 8.47596C14.154 8.90763 14 9.41515 14 9.93433C14 10.6305 14.2766 11.2982 14.7688 11.7905C15.2611 12.2828 15.9288 12.5593 16.625 12.5593ZM16.625 9.05933C16.7981 9.05933 16.9672 9.11065 17.1111 9.20679C17.255 9.30294 17.3672 9.43959 17.4334 9.59948C17.4996 9.75936 17.5169 9.9353 17.4832 10.105C17.4494 10.2748 17.3661 10.4307 17.2437 10.553C17.1213 10.6754 16.9654 10.7588 16.7957 10.7925C16.626 10.8263 16.45 10.8089 16.2902 10.7427C16.1303 10.6765 15.9936 10.5643 15.8975 10.4205C15.8013 10.2766 15.75 10.1074 15.75 9.93433C15.75 9.70226 15.8422 9.4797 16.0063 9.31561C16.1704 9.15152 16.3929 9.05933 16.625 9.05933Z" fill="#9E9E9E"/>
<path id="Vector_2" d="M22.75 3.80933H5.25C4.78587 3.80933 4.34075 3.9937 4.01256 4.32189C3.68437 4.65008 3.5 5.0952 3.5 5.55933V23.0593C3.5 23.5235 3.68437 23.9686 4.01256 24.2968C4.34075 24.625 4.78587 24.8093 5.25 24.8093H22.75C23.2141 24.8093 23.6592 24.625 23.9874 24.2968C24.3156 23.9686 24.5 23.5235 24.5 23.0593V5.55933C24.5 5.0952 24.3156 4.65008 23.9874 4.32189C23.6592 3.9937 23.2141 3.80933 22.75 3.80933ZM22.75 23.0593H5.25V17.8093L9.625 13.4343L14.5163 18.3256C14.8441 18.6515 15.2877 18.8345 15.75 18.8345C16.2123 18.8345 16.6559 18.6515 16.9837 18.3256L18.375 16.9343L22.75 21.3093V23.0593ZM22.75 18.8331L19.6087 15.6918C19.2809 15.3659 18.8373 15.1829 18.375 15.1829C17.9127 15.1829 17.4691 15.3659 17.1413 15.6918L15.75 17.0831L10.8587 12.1918C10.5309 11.8659 10.0873 11.6829 9.625 11.6829C9.16267 11.6829 8.71913 11.8659 8.39125 12.1918L5.25 15.3331V5.55933H22.75V18.8331Z" fill="#9E9E9E"/>
</g>
</svg>
