<svg width="24" height="24" viewBox="0 0 24 24" fill="none" xmlns="http://www.w3.org/2000/svg">
<path d="M11.9996 1.875C10.2652 1.87463 8.55986 2.31977 7.04696 3.16775C5.53405 4.01573 4.26434 5.23811 3.35952 6.71772C2.4547 8.19733 1.94512 9.88456 1.87963 11.6177C1.81414 13.3508 2.19493 15.0716 2.9855 16.6153L1.96831 19.6556C1.85677 19.9866 1.83988 20.3422 1.91956 20.6822C1.99925 21.0223 2.17232 21.3333 2.41929 21.5803C2.66626 21.8272 2.9773 22.0003 3.31736 22.08C3.65741 22.1597 4.01296 22.1428 4.34394 22.0313L7.38425 21.0178C8.7474 21.7137 10.2506 22.0916 11.7808 22.1229C13.311 22.1542 14.8284 21.8382 16.2189 21.1987C17.6094 20.5591 18.8368 19.6126 19.8088 18.4304C20.7809 17.2482 21.4722 15.861 21.831 14.3731C22.1897 12.8852 22.2064 11.3354 21.8799 9.84009C21.5534 8.3448 20.8922 6.94298 19.9459 5.74004C18.9997 4.5371 17.793 3.56434 16.4166 2.8949C15.0403 2.22545 13.5301 1.87675 11.9996 1.875ZM11.9996 19.875C10.6152 19.8755 9.25509 19.5111 8.05644 18.8184C7.88553 18.7193 7.69152 18.6669 7.49394 18.6666C7.37284 18.6668 7.25257 18.6864 7.13769 18.7247L4.34487 19.6556L5.27581 16.8628C5.32622 16.7116 5.34393 16.5514 5.32777 16.3929C5.3116 16.2343 5.26194 16.081 5.18206 15.9431C4.31392 14.4423 3.96534 12.697 4.19038 10.9778C4.41542 9.25871 5.20152 7.66189 6.42671 6.43512C7.6519 5.20835 9.2477 4.4202 10.9665 4.19294C12.6854 3.96568 14.4312 4.31202 15.9331 5.17823C17.435 6.04443 18.6091 7.38208 19.2732 8.98366C19.9373 10.5852 20.0543 12.3612 19.606 14.0361C19.1577 15.7109 18.1693 17.191 16.794 18.2467C15.4186 19.3025 13.7334 19.8748 11.9996 19.875Z" fill="current"/>
</svg>
