<svg width="14" height="7" viewBox="0 0 14 7" fill="none" xmlns="http://www.w3.org/2000/svg">
<g id="Vector">
<path d="M9.11968 6.14382L13.7092 1.66462C13.8955 1.48178 14 1.23445 14 0.976639C14 0.718831 13.8955 0.471497 13.7092 0.288658C13.6163 0.197192 13.5057 0.124594 13.3838 0.0750506C13.262 0.0255075 13.1313 5.76986e-09 12.9993 0C12.8673 -5.76986e-09 12.7366 0.0255075 12.6148 0.0750506C12.4929 0.124594 12.3823 0.197192 12.2894 0.288658L7.70982 4.77761C7.61686 4.86908 7.50627 4.94168 7.38442 4.99122C7.26258 5.04076 7.13188 5.06627 6.99989 5.06627C6.86789 5.06627 6.73719 5.04076 6.61535 4.99122C6.4935 4.94168 6.38291 4.86908 6.28995 4.77761L1.7104 0.288657C1.52344 0.104899 1.26934 0.00115092 1.004 0.000235861C0.738664 -0.000679196 0.48382 0.101315 0.295535 0.283779C0.107249 0.466243 0.000943857 0.71423 6.25477e-06 0.973189C-0.000931348 1.23215 0.103576 1.48086 0.290536 1.66462L4.88009 6.14382C5.44254 6.69206 6.20496 7 6.99989 7C7.79481 7 8.55723 6.69206 9.11968 6.14382Z" fill="#757575"/>
</g>
</svg>
