<svg width="24" height="24" viewBox="0 0 24 24" fill="none" xmlns="http://www.w3.org/2000/svg">
<path fill-rule="evenodd" clip-rule="evenodd" d="M3.06043 3.06068C2.47465 3.64646 2.47465 4.59621 3.06043 5.182L5.86126 7.98283C4.79926 8.77334 4.04173 9.65652 3.54964 10.3429C2.81648 11.3584 2.81648 12.6416 3.54964 13.6571C4.71246 15.279 7.35749 18 11.9998 18C13.2613 18 14.3754 17.7991 15.3523 17.4738L17.9097 20.0312C18.4955 20.617 19.4452 20.617 20.031 20.0312C20.6168 19.4455 20.6168 18.4957 20.031 17.9099L5.18175 3.06068C4.59597 2.47489 3.64622 2.47489 3.06043 3.06068ZM12.7768 14.8984L9.10138 11.2229C9.03511 11.4708 8.99977 11.7313 8.99977 12C8.99977 13.6569 10.3429 15 11.9998 15C12.2685 15 12.529 14.9647 12.7768 14.8984Z" fill="#0A0A0A"/>
<path d="M20.4499 13.6571C19.9074 14.4138 18.826 14.412 18.1676 13.7537L11.5669 7.15292C11.1346 6.72067 11.3885 6 11.9998 6C16.6421 6 19.2871 8.72103 20.4499 10.3429C21.1831 11.3584 21.1831 12.6416 20.4499 13.6571Z" fill="#0A0A0A"/>
</svg>
