<svg width="18" height="12" viewBox="0 0 18 12" fill="none" xmlns="http://www.w3.org/2000/svg">
<path fill-rule="evenodd" clip-rule="evenodd" d="M9 0C13.6423 0 16.2873 2.72103 17.4501 4.34286C18.1833 5.35839 18.1833 6.64158 17.4501 7.65714C16.2873 9.27897 13.6423 12 9 12C4.35771 12 1.71269 9.27897 0.549869 7.65714C-0.18329 6.64158 -0.18329 5.35839 0.549869 4.34286C1.71269 2.72103 4.35771 0 9 0ZM9 9C10.6569 9 12 7.65685 12 6C12 4.34315 10.6569 3 9 3C7.34315 3 6 4.34315 6 6C6 7.65685 7.34315 9 9 9Z" fill="#0A0A0A"/>
</svg>
