<svg width="28" height="29" viewBox="0 0 28 29" fill="none" xmlns="http://www.w3.org/2000/svg">
<g id="fluent:emoji-24-regular">
<path id="Vector" d="M13.9991 2.64038C20.4437 2.64038 25.6681 7.86471 25.6681 14.3094C25.6681 20.7529 20.4437 25.976 13.9991 25.976C7.55441 25.976 2.33008 20.7529 2.33008 14.3094C2.33008 7.86471 7.55441 2.64038 13.9991 2.64038ZM13.9991 4.39038C12.6875 4.37616 11.3862 4.6222 10.1703 5.11426C8.9545 5.60633 7.84833 6.33465 6.91585 7.25708C5.98337 8.1795 5.24309 9.2777 4.73787 10.4881C4.23265 11.6986 3.97251 12.9972 3.97251 14.3088C3.97251 15.6204 4.23265 16.919 4.73787 18.1295C5.24309 19.3399 5.98337 20.4381 6.91585 21.3605C7.84833 22.2829 8.9545 23.0113 10.1703 23.5033C11.3862 23.9954 12.6875 24.2414 13.9991 24.2272C16.611 24.1989 19.1063 23.1414 20.9432 21.2845C22.7802 19.4275 23.8105 16.9208 23.8105 14.3088C23.8105 11.6967 22.7802 9.19013 20.9432 7.33314C19.1063 5.47616 16.611 4.41871 13.9991 4.39038ZM9.87141 17.5562C10.3629 18.1808 10.9898 18.6856 11.7048 19.0326C12.4199 19.3796 13.2043 19.5597 13.9991 19.5594C14.7931 19.5604 15.577 19.381 16.2915 19.0345C17.0059 18.6881 17.6323 18.1838 18.1232 17.5597C18.1945 17.4696 18.2828 17.3943 18.3831 17.3383C18.4834 17.2822 18.5938 17.2465 18.7079 17.2331C18.8221 17.2197 18.9377 17.229 19.0483 17.2603C19.1588 17.2916 19.2622 17.3444 19.3523 17.4156C19.4425 17.4869 19.5177 17.5752 19.5738 17.6755C19.6298 17.7758 19.6655 17.8862 19.6789 18.0003C19.6923 18.1145 19.6831 18.2301 19.6518 18.3407C19.6204 18.4512 19.5677 18.5545 19.4964 18.6447C18.8417 19.4761 18.0066 20.148 17.0543 20.6096C16.102 21.0712 15.0573 21.3105 13.9991 21.3094C12.9392 21.3105 11.893 21.0706 10.9396 20.6077C9.98621 20.1448 9.15056 19.4712 8.49591 18.6377C8.42482 18.5474 8.37222 18.444 8.3411 18.3333C8.30999 18.2227 8.30097 18.107 8.31457 17.9928C8.32816 17.8787 8.36411 17.7684 8.42034 17.6681C8.47658 17.5679 8.55201 17.4797 8.64233 17.4086C8.73264 17.3375 8.83608 17.2849 8.94672 17.2538C9.05737 17.2227 9.17306 17.2137 9.28719 17.2273C9.40132 17.2409 9.51166 17.2768 9.6119 17.3331C9.71214 17.3893 9.80032 17.4647 9.87141 17.555M10.4991 10.5177C10.694 10.5122 10.888 10.5458 11.0697 10.6166C11.2514 10.6874 11.417 10.7939 11.5568 10.9298C11.6966 11.0657 11.8078 11.2283 11.8837 11.4079C11.9596 11.5875 11.9987 11.7805 11.9987 11.9755C11.9987 12.1704 11.9596 12.3634 11.8837 12.5431C11.8078 12.7227 11.6966 12.8852 11.5568 13.0211C11.417 13.1571 11.2514 13.2635 11.0697 13.3343C10.888 13.4051 10.694 13.4387 10.4991 13.4332C10.1196 13.4225 9.75926 13.2642 9.49464 12.992C9.23003 12.7198 9.08199 12.3551 9.08199 11.9755C9.08199 11.5958 9.23003 11.2312 9.49464 10.959C9.75926 10.6867 10.1196 10.5285 10.4991 10.5177ZM17.4991 10.5177C17.694 10.5122 17.888 10.5458 18.0697 10.6166C18.2514 10.6874 18.417 10.7939 18.5568 10.9298C18.6966 11.0657 18.8078 11.2283 18.8837 11.4079C18.9596 11.5875 18.9987 11.7805 18.9987 11.9755C18.9987 12.1704 18.9596 12.3634 18.8837 12.5431C18.8078 12.7227 18.6966 12.8852 18.5568 13.0211C18.417 13.1571 18.2514 13.2635 18.0697 13.3343C17.888 13.4051 17.694 13.4387 17.4991 13.4332C17.1196 13.4225 16.7593 13.2642 16.4946 12.992C16.23 12.7198 16.082 12.3551 16.082 11.9755C16.082 11.5958 16.23 11.2312 16.4946 10.959C16.7593 10.6867 17.1196 10.5285 17.4991 10.5177Z" fill="#9E9E9E"/>
</g>
</svg>
