<svg width="18" height="19" viewBox="0 0 18 19" fill="none" xmlns="http://www.w3.org/2000/svg">
<path d="M17.7899 9.29256C17.7899 8.69425 17.7369 8.12623 17.646 7.57336H9.08789V10.989H13.988C13.7683 12.1099 13.1246 13.0566 12.1703 13.7004V15.9724H15.0937C16.8053 14.3896 17.7899 12.0569 17.7899 9.29256Z" fill="white"/>
<path d="M9.08784 18.1766C11.5417 18.1766 13.5941 17.3587 15.0937 15.9727L12.1703 13.7006C11.3523 14.2459 10.3148 14.5792 9.08784 14.5792C6.71732 14.5792 4.71033 12.9812 3.99084 10.8227H0.976562V13.1629C2.46855 16.1318 5.53584 18.1766 9.08784 18.1766Z" fill="white"/>
<path d="M3.99126 10.8227C3.80192 10.2774 3.70347 9.69425 3.70347 9.08836C3.70347 8.48248 3.8095 7.89932 3.99126 7.35402V5.01379H0.976988C0.355956 6.24071 0 7.61909 0 9.08836C0 10.5576 0.355956 11.936 0.976988 13.1629L3.99126 10.8227Z" fill="white"/>
<path d="M9.08784 3.59744C10.4284 3.59744 11.625 4.05943 12.5717 4.96068L15.1618 2.37052C13.5941 0.901254 11.5417 0 9.08784 0C5.53584 0 2.46855 2.04486 0.976562 5.01369L3.99084 7.35392C4.71033 5.19546 6.71732 3.59744 9.08784 3.59744Z" fill="white"/>
</svg>
