<svg width="28" height="28" viewBox="0 0 28 28" fill="none" xmlns="http://www.w3.org/2000/svg">
<g id="Bulk/Navbar/Home">
<g id="Vector">
<path d="M17.7493 17.7986V22.5242H20.7497C21.9925 22.5242 23 21.4664 23 20.1614V12.9777C23.0002 12.5685 22.8487 12.1754 22.5777 11.8814L16.2034 4.64563C15.0786 3.36786 13.1804 3.28941 11.9634 4.47037C11.9056 4.52649 11.8499 4.58493 11.7965 4.64563L5.43344 11.879C5.15419 12.1742 4.99751 12.5735 4.99762 12.9895V20.1614C4.99762 21.4664 6.00512 22.5242 7.24792 22.5242H10.2483V17.7986C10.2623 15.651 11.9137 13.8972 13.9076 13.8467C15.9682 13.7945 17.7336 15.5781 17.7493 17.7986Z" fill="white"/>
<path fill-rule="evenodd" clip-rule="evenodd" d="M15.7912 5.50689C14.8584 4.38746 13.1391 4.38746 12.2062 5.50689L4.39499 14.8804C3.98249 15.3753 3.24684 15.4422 2.75185 15.0297C2.25686 14.6172 2.18998 13.8816 2.60247 13.3866L10.4137 4.01312C12.2794 1.77427 15.718 1.77427 17.5838 4.01312L25.395 13.3866C25.8075 13.8816 25.7406 14.6172 25.2456 15.0297C24.7506 15.4422 24.015 15.3753 23.6025 14.8804L15.7912 5.50689Z" fill="white"/>
<path d="M13.9987 13.0835C12.259 13.0835 10.8487 14.4938 10.8487 16.2335V22.5335H17.1487V16.2335C17.1487 14.4938 15.7384 13.0835 13.9987 13.0835Z" fill="white"/>
<path fill-rule="evenodd" clip-rule="evenodd" d="M3.83138 15.2518C3.46987 15.359 3.06325 15.2892 2.75185 15.0297C2.25686 14.6172 2.18998 13.8816 2.60247 13.3866L10.4137 4.01312C12.2794 1.77427 15.718 1.77427 17.5838 4.01312L25.395 13.3866C25.8075 13.8816 25.7406 14.6172 25.2456 15.0297C24.9345 15.289 24.5283 15.3589 24.1671 15.2522V20.1614C24.1671 22.0564 22.6902 23.6909 20.7501 23.6909H20.4154V23.7002H7.58203V23.6909H7.24834C5.30823 23.6909 3.83138 22.0564 3.83138 20.1614V15.2518ZM18.3151 21.3576H20.7501C21.2956 21.3576 21.8338 20.8763 21.8338 20.1614V12.9777C21.8338 12.8542 21.7876 12.7451 21.7204 12.6722L21.7114 12.6625L15.3284 5.41683C14.6411 4.63603 13.5117 4.59403 12.7764 5.30761C12.7404 5.34253 12.7059 5.37875 12.6729 5.41621L6.2959 12.6654L6.28141 12.6807C6.21255 12.7535 6.16468 12.8635 6.16471 12.9892V20.1614C6.16471 20.8763 6.70286 21.3576 7.24834 21.3576H9.6818V16.2335C9.6818 13.8495 11.6145 11.9168 13.9985 11.9168C16.3825 11.9168 18.3151 13.8495 18.3151 16.2335V21.3576ZM15.9818 21.3668V16.2335C15.9818 15.1382 15.0938 14.2502 13.9985 14.2502C12.9031 14.2502 12.0151 15.1382 12.0151 16.2335V21.3668H15.9818Z" fill="#757575"/>
</g>
</g>
</svg>
