<svg width="24" height="24" viewBox="0 0 28 28" fill="none" xmlns="http://www.w3.org/2000/svg">
<g id="Bulk/Navbar/Home">
<g id="Vector">
<path d="M17.7513 17.7986V22.5242H20.7517C21.9944 22.5242 23.0019 21.4664 23.0019 20.1614V12.9777C23.0021 12.5685 22.8507 12.1754 22.5796 11.8814L16.2053 4.64563C15.0806 3.36786 13.1823 3.28941 11.9654 4.47037C11.9076 4.52649 11.8519 4.58493 11.7985 4.64563L5.43539 11.879C5.15614 12.1742 4.99947 12.5735 4.99957 12.9895V20.1614C4.99957 21.4664 6.00707 22.5242 7.24987 22.5242H10.2503V17.7986C10.2643 15.651 11.9157 13.8972 13.9096 13.8467C15.9701 13.7945 17.7355 15.5781 17.7513 17.7986Z" fill="#78297D"/>
<path fill-rule="evenodd" clip-rule="evenodd" d="M15.7932 5.50689C14.8603 4.38746 13.141 4.38746 12.2082 5.50689L4.39694 14.8804C3.98445 15.3753 3.24879 15.4422 2.7538 15.0297C2.25881 14.6172 2.19193 13.8816 2.60442 13.3866L10.4156 4.01312C12.2814 1.77427 15.72 1.77427 17.5857 4.01312L25.3969 13.3866C25.8094 13.8816 25.7425 14.6172 25.2476 15.0297C24.7526 15.4422 24.0169 15.3753 23.6044 14.8804L15.7932 5.50689Z" fill="#F38920"/>
<path d="M14.0007 13.0835C12.261 13.0835 10.8507 14.4938 10.8507 16.2335V22.5335H17.1507V16.2335C17.1507 14.4938 15.7404 13.0835 14.0007 13.0835Z" fill="#F38920"/>
<path fill-rule="evenodd" clip-rule="evenodd" d="M3.83333 15.2518C3.47182 15.359 3.0652 15.2892 2.7538 15.0297C2.25881 14.6172 2.19193 13.8816 2.60442 13.3866L10.4156 4.01312C12.2814 1.77427 15.72 1.77427 17.5857 4.01312L25.3969 13.3866C25.8094 13.8816 25.7425 14.6172 25.2476 15.0297C24.9365 15.289 24.5303 15.3589 24.169 15.2522V20.1614C24.169 22.0564 22.6922 23.6909 20.7521 23.6909H20.4173V23.7002H7.58398V23.6909H7.2503C5.31018 23.6909 3.83333 22.0564 3.83333 20.1614V15.2518ZM18.3171 21.3576H20.7521C21.2976 21.3576 21.8357 20.8763 21.8357 20.1614V12.9777C21.8358 12.8542 21.7895 12.7451 21.7223 12.6722L21.7134 12.6625L15.3303 5.41683C14.643 4.63603 13.5136 4.59403 12.7783 5.30761C12.7424 5.34253 12.7079 5.37875 12.6749 5.41621L6.29786 12.6654L6.28336 12.6807C6.21451 12.7535 6.16663 12.8635 6.16667 12.9892V20.1614C6.16667 20.8763 6.70482 21.3576 7.2503 21.3576H9.68376V16.2335C9.68376 13.8495 11.6164 11.9168 14.0004 11.9168C16.3844 11.9168 18.3171 13.8495 18.3171 16.2335V21.3576ZM15.9838 21.3668V16.2335C15.9838 15.1382 15.0958 14.2502 14.0004 14.2502C12.9051 14.2502 12.0171 15.1382 12.0171 16.2335V21.3668H15.9838Z" fill="#480F4B"/>
</g>
</g>
</svg>
