<svg width="29" height="28" viewBox="0 0 29 28" fill="none" xmlns="http://www.w3.org/2000/svg">
<g id="iconamoon:like">
<g id="Group">
<path id="Vector" d="M18 11.6667L16.8497 11.4753C16.8219 11.6424 16.8308 11.8135 16.8758 11.9768C16.9208 12.14 17.0009 12.2915 17.1103 12.4207C17.2198 12.55 17.3561 12.6538 17.5097 12.7251C17.6633 12.7963 17.8306 12.8333 18 12.8333V11.6667ZM5.16667 11.6667V10.5C4.85725 10.5 4.5605 10.6229 4.34171 10.8417C4.12292 11.0605 4 11.3572 4 11.6667H5.16667ZM7.5 24.5H20.7533V22.1667H7.5V24.5ZM22.1533 10.5H18V12.8333H22.1533V10.5ZM19.1515 11.858L20.0907 6.21717L17.79 5.83333L16.8497 11.4753L19.1515 11.858ZM17.79 3.5H17.5403V5.83333H17.79V3.5ZM13.6565 5.57783L10.7235 9.98083L12.6648 11.2758L15.6002 6.87283L13.6565 5.57783ZM9.75167 10.5H5.16667V12.8333H9.75167V10.5ZM4 11.6667V21H6.33333V11.6667H4ZM24.1857 21.686L25.5857 14.686L23.299 14.2287L21.899 21.2287L24.1857 21.686ZM10.7235 9.98083C10.6169 10.1406 10.4714 10.2715 10.3021 10.3621C10.1328 10.4527 9.94369 10.5 9.75167 10.5V12.8333C10.3278 12.8333 10.8951 12.691 11.4031 12.4191C11.9111 12.1472 12.3441 11.7541 12.6637 11.2747L10.7235 9.98083ZM20.0907 6.21717C20.1464 5.88296 20.1287 5.54063 20.0387 5.21396C19.9488 4.88729 19.7888 4.58413 19.5699 4.32555C19.3509 4.06697 19.0783 3.85918 18.7709 3.71661C18.4636 3.57404 18.1288 3.50013 17.79 3.5V5.83333L20.0907 6.21717ZM22.1533 12.8333C22.326 12.8333 22.4965 12.8715 22.6525 12.9453C22.8086 13.0191 22.9464 13.1266 23.0558 13.2601C23.1653 13.3936 23.2438 13.5497 23.2857 13.7172C23.3275 13.8847 23.3328 14.0594 23.299 14.2287L25.5857 14.686C25.6871 14.1783 25.6747 13.6545 25.5493 13.1522C25.4239 12.6499 25.1886 12.1816 24.8604 11.7812C24.5322 11.3808 24.1193 11.0582 23.6514 10.8367C23.1835 10.6151 22.6722 10.5001 22.1545 10.5L22.1533 12.8333ZM20.7533 24.5C21.5626 24.5 22.3468 24.2197 22.9726 23.7066C23.5984 23.1936 24.0271 22.4795 24.1857 21.686L21.899 21.2287C21.8461 21.4934 21.703 21.7317 21.494 21.9027C21.2851 22.0738 21.0233 22.167 20.7533 22.1667V24.5ZM17.5403 3.5C16.7721 3.50001 16.0158 3.68967 15.3385 4.05214C14.6612 4.41461 14.0827 4.93868 13.6565 5.57783L15.6002 6.87283C15.8132 6.55315 16.1007 6.291 16.4393 6.10966C16.778 5.92832 17.1562 5.8334 17.5403 5.83333V3.5ZM7.5 22.1667C7.19058 22.1667 6.89383 22.0438 6.67504 21.825C6.45625 21.6062 6.33333 21.3094 6.33333 21H4C4 21.9283 4.36875 22.8185 5.02513 23.4749C5.6815 24.1313 6.57174 24.5 7.5 24.5V22.1667Z" fill="#933393"/>
<path id="Vector_2" d="M9.83398 11.6666V23.3333" stroke="#933393" stroke-width="2"/>
</g>
</g>
</svg>
