<svg width="24" height="24" viewBox="0 0 25 24" fill="none" xmlns="http://www.w3.org/2000/svg">
<g id="Group">
<path id="Vector" d="M15.1628 2C15.5826 2.00011 15.9917 2.13229 16.3321 2.37781C16.6726 2.62333 16.9272 2.96975 17.0598 3.368L17.6028 5H20.8828C21.148 5 21.4024 5.10536 21.5899 5.29289C21.7775 5.48043 21.8828 5.73478 21.8828 6C21.8828 6.26522 21.7775 6.51957 21.5899 6.70711C21.4024 6.89464 21.148 7 20.8828 7L20.8798 7.071L20.0128 19.214C19.9587 19.9706 19.62 20.6786 19.0648 21.1956C18.5097 21.7125 17.7794 21.9999 17.0208 22H8.74481C7.98627 21.9999 7.25592 21.7125 6.70078 21.1956C6.14564 20.6786 5.80692 19.9706 5.75281 19.214L4.88581 7.07C4.884 7.04671 4.883 7.02336 4.88281 7C4.6176 7 4.36324 6.89464 4.17571 6.70711C3.98817 6.51957 3.88281 6.26522 3.88281 6C3.88281 5.73478 3.98817 5.48043 4.17571 5.29289C4.36324 5.10536 4.6176 5 4.88281 5H8.16281L8.70581 3.368C8.83851 2.96959 9.09325 2.62305 9.43391 2.37752C9.77458 2.13198 10.1839 1.9999 10.6038 2H15.1628ZM18.8798 7H6.88581L7.74781 19.071C7.76576 19.3232 7.87859 19.5592 8.06357 19.7316C8.24856 19.904 8.49197 19.9999 8.74481 20H17.0208C17.2737 19.9999 17.5171 19.904 17.7021 19.7316C17.887 19.5592 17.9999 19.3232 18.0178 19.071L18.8798 7ZM10.8828 10C11.1277 10 11.3642 10.09 11.5472 10.2527C11.7302 10.4155 11.8472 10.6397 11.8758 10.883L11.8828 11V16C11.8825 16.2549 11.7849 16.5 11.61 16.6854C11.435 16.8707 11.1959 16.9822 10.9414 16.9972C10.687 17.0121 10.4364 16.9293 10.241 16.7657C10.0455 16.6021 9.91992 16.3701 9.88981 16.117L9.88281 16V11C9.88281 10.7348 9.98817 10.4804 10.1757 10.2929C10.3632 10.1054 10.6176 10 10.8828 10ZM14.8828 10C15.148 10 15.4024 10.1054 15.5899 10.2929C15.7775 10.4804 15.8828 10.7348 15.8828 11V16C15.8828 16.2652 15.7775 16.5196 15.5899 16.7071C15.4024 16.8946 15.148 17 14.8828 17C14.6176 17 14.3632 16.8946 14.1757 16.7071C13.9882 16.5196 13.8828 16.2652 13.8828 16V11C13.8828 10.7348 13.9882 10.4804 14.1757 10.2929C14.3632 10.1054 14.6176 10 14.8828 10ZM15.1628 4H10.6028L10.2698 5H15.4958L15.1628 4Z" fill="#757575"/>
</g>
</svg>
