<svg width="29" height="28" viewBox="0 0 29 28" fill="none" xmlns="http://www.w3.org/2000/svg">
<g id="iconamoon:comment-bold">
<path id="Vector" d="M14.5 24.5C16.5767 24.5 18.6068 23.8842 20.3335 22.7304C22.0602 21.5767 23.406 19.9368 24.2007 18.0182C24.9955 16.0996 25.2034 13.9884 24.7982 11.9516C24.3931 9.91476 23.3931 8.04383 21.9246 6.57538C20.4562 5.10693 18.5852 4.1069 16.5484 3.70176C14.5116 3.29661 12.4004 3.50455 10.4818 4.29927C8.5632 5.09399 6.92332 6.4398 5.76957 8.16652C4.61581 9.89323 4 11.9233 4 14C4 15.736 4.42 17.3728 5.16667 18.8148L4 24.5L9.68517 23.3333C11.1272 24.08 12.7652 24.5 14.5 24.5Z" stroke="#757575" stroke-width="2.5" stroke-linecap="round" stroke-linejoin="round"/>
</g>
</svg>
