<svg width="29" height="29" viewBox="0 0 29 29" fill="none" xmlns="http://www.w3.org/2000/svg">
<g id="iconamoon:comment-bold">
<path id="Vector" d="M14.5 24.8093C16.5767 24.8093 18.6068 24.1935 20.3335 23.0398C22.0602 21.886 23.406 20.2461 24.2007 18.3275C24.9955 16.4089 25.2034 14.2977 24.7982 12.2609C24.3931 10.2241 23.3931 8.35316 21.9246 6.88471C20.4562 5.41626 18.5852 4.41623 16.5484 4.01109C14.5116 3.60594 12.4004 3.81388 10.4818 4.6086C8.5632 5.40332 6.92332 6.74913 5.76957 8.47584C4.61581 10.2026 4 12.2326 4 14.3093C4 16.0453 4.42 17.6822 5.16667 19.1242L4 24.8093L9.68517 23.6427C11.1272 24.3893 12.7652 24.8093 14.5 24.8093Z" stroke="#757575" stroke-width="2.5" stroke-linecap="round" stroke-linejoin="round"/>
</g>
</svg>
