<svg width="24" height="24" viewBox="0 0 24 24" fill="none" xmlns="http://www.w3.org/2000/svg">
<path d="M12 2C9.87912 2.00243 7.84577 2.87939 6.34601 4.43852C4.84624 5.99765 4.00255 8.11161 4 10.3167C4 12.4583 5.59503 15.81 8.74101 20.2783C9.11553 20.8117 9.6059 21.2457 10.1722 21.5449C10.7385 21.8441 11.3648 22 12 22C12.6352 22 13.2615 21.8441 13.8278 21.5449C14.3941 21.2457 14.8845 20.8117 15.259 20.2783C18.405 15.81 20 12.4583 20 10.3167C19.9975 8.11161 19.1538 5.99765 17.654 4.43852C16.1542 2.87939 14.1209 2.00243 12 2ZM12 13.6316C11.3659 13.6316 10.746 13.4362 10.2188 13.0699C9.69155 12.7036 9.28062 12.183 9.03796 11.5739C8.7953 10.9648 8.7318 10.2946 8.85551 9.64802C8.97922 9.00142 9.28457 8.40748 9.73295 7.9413C10.1813 7.47513 10.7526 7.15766 11.3745 7.02904C11.9964 6.90042 12.6411 6.96643 13.2269 7.21873C13.8128 7.47102 14.3135 7.89826 14.6658 8.44642C15.0181 8.99459 15.2061 9.63905 15.2061 10.2983C15.2061 11.1824 14.8683 12.0302 14.267 12.6553C13.6658 13.2805 12.8503 13.6316 12 13.6316Z" fill="#933393"/>
</svg>
