<svg width="20" height="20" viewBox="0 0 20 20" fill="none" xmlns="http://www.w3.org/2000/svg">
<g id="Bulk/Basic/long-arrow-right">
<path id="Union" d="M10.9705 4.4093L14.7032 8.23393C15.16 8.70263 15.4167 9.33798 15.4167 10.0004C15.4167 10.6629 15.16 11.2982 14.7032 11.7669L10.9705 15.5915C10.8174 15.7473 10.6101 15.8344 10.3943 15.8337C10.1785 15.8329 9.97187 15.7443 9.81982 15.5874C9.66776 15.4305 9.58277 15.2181 9.58353 14.997C9.58429 14.7759 9.67075 14.5641 9.82388 14.4083L13.3278 10.8337H5.83333C5.3731 10.8337 5 10.4606 5 10.0003C5 9.54009 5.3731 9.16699 5.83333 9.16699H13.3276L9.82388 5.59251C9.74766 5.51505 9.68716 5.42289 9.64588 5.32135C9.60459 5.21982 9.58333 5.1109 9.58333 5.00091C9.58333 4.89091 9.60459 4.782 9.64588 4.68046C9.68716 4.57892 9.74766 4.48676 9.82388 4.4093C9.97625 4.2541 10.1824 4.16699 10.3972 4.16699C10.612 4.16699 10.8182 4.2541 10.9705 4.4093Z" fill="#933393"/>
</g>
</svg>
