<svg width="24" height="24" viewBox="0 0 24 24" fill="none" xmlns="http://www.w3.org/2000/svg">
<g id="Bulk/Basic/long-arrow-right">
<path id="Union" d="M13.1646 5.29076L17.6438 9.88032C18.1921 10.4428 18.5 11.2052 18.5 12.0001C18.5 12.795 18.1921 13.5575 17.6438 14.1199L13.1646 18.7095C12.9809 18.8964 12.7321 19.0009 12.4732 19C12.2142 18.9991 11.9662 18.8928 11.7838 18.7045C11.6013 18.5162 11.4993 18.2613 11.5002 17.996C11.5012 17.7307 11.6049 17.4766 11.7887 17.2896L15.9934 13H7C6.44772 13 6 12.5523 6 12C6 11.4477 6.44772 11 7 11H15.9932L11.7887 6.71063C11.6972 6.61767 11.6246 6.50708 11.5751 6.38524C11.5255 6.26339 11.5 6.13269 11.5 6.0007C11.5 5.8687 11.5255 5.738 11.5751 5.61616C11.6246 5.49431 11.6972 5.38372 11.7887 5.29076C11.9715 5.10453 12.2188 5 12.4766 5C12.7344 5 12.9818 5.10453 13.1646 5.29076Z" fill="current"/>
</g>
</svg>
