<svg width="24" height="24" viewBox="0 0 28 29" fill="none" xmlns="http://www.w3.org/2000/svg">
<g id="mynaui:send">
<path id="Vector" d="M16.334 11.976L12.834 15.476M23.67 3.84555C23.7807 3.80734 23.8999 3.80106 24.014 3.8274C24.1281 3.85375 24.2325 3.91167 24.3153 3.99454C24.398 4.07741 24.4558 4.18189 24.482 4.29604C24.5081 4.41019 24.5017 4.5294 24.4633 4.64005L17.552 24.3917C17.5106 24.5098 17.4347 24.6127 17.3342 24.6871C17.2336 24.7615 17.113 24.804 16.988 24.809C16.863 24.8141 16.7394 24.7814 16.6332 24.7153C16.5269 24.6492 16.443 24.5527 16.3923 24.4384L12.6368 15.9894C12.5742 15.8485 12.4615 15.7358 12.3207 15.6732L3.87165 11.9165C3.75766 11.8657 3.66155 11.7817 3.59574 11.6757C3.52993 11.5696 3.49743 11.4462 3.50246 11.3215C3.50748 11.1967 3.5498 11.0764 3.62393 10.9759C3.69806 10.8755 3.80061 10.7996 3.91832 10.758L23.67 3.84555Z" stroke="#9E9E9E" stroke-width="1.5" stroke-linecap="round" stroke-linejoin="round"/>
</g>
</svg>
