<svg width="24" height="24" viewBox="0 0 24 24" fill="none" xmlns="http://www.w3.org/2000/svg">
<g id="ph:user-bold">
<path id="Vector" d="M21.9714 19.6874C20.686 17.4315 18.679 15.6737 16.2733 14.6971C17.4696 13.7998 18.3533 12.5489 18.7992 11.1215C19.2451 9.69412 19.2305 8.16262 18.7576 6.74395C18.2847 5.32527 17.3775 4.09135 16.1643 3.21697C14.9512 2.34259 13.4937 1.87207 11.9983 1.87207C10.5029 1.87207 9.04535 2.34259 7.83221 3.21697C6.61907 4.09135 5.71179 5.32527 5.2389 6.74395C4.76601 8.16262 4.75148 9.69412 5.19736 11.1215C5.64325 12.5489 6.52694 13.7998 7.72327 14.6971C5.31757 15.6737 3.3105 17.4315 2.02515 19.6874C1.9455 19.8154 1.89242 19.9582 1.86905 20.1072C1.84569 20.2562 1.85252 20.4084 1.88914 20.5547C1.92575 20.701 1.99141 20.8384 2.08221 20.9588C2.17301 21.0792 2.28709 21.1802 2.41767 21.2556C2.54826 21.3311 2.69268 21.3795 2.84235 21.398C2.99202 21.4165 3.14388 21.4047 3.28891 21.3634C3.43395 21.322 3.56918 21.252 3.68659 21.1573C3.80399 21.0626 3.90117 20.9453 3.97233 20.8124C5.67108 17.8761 8.67108 16.1249 11.9983 16.1249C15.3255 16.1249 18.3255 17.8771 20.0242 20.8124C20.1784 21.0604 20.4231 21.2387 20.7064 21.3096C20.9897 21.3805 21.2895 21.3385 21.5423 21.1924C21.7952 21.0463 21.9814 20.8076 22.0614 20.5267C22.1415 20.2458 22.1092 19.9449 21.9714 19.6874ZM7.12327 8.99988C7.12327 8.0357 7.40919 7.09317 7.94486 6.29148C8.48053 5.48979 9.2419 4.86495 10.1327 4.49597C11.0235 4.12699 12.0037 4.03045 12.9493 4.21855C13.895 4.40666 14.7636 4.87096 15.4454 5.55274C16.1272 6.23452 16.5915 7.10316 16.7796 8.04882C16.9677 8.99447 16.8712 9.97467 16.5022 10.8655C16.1332 11.7563 15.5084 12.5176 14.7067 13.0533C13.905 13.589 12.9625 13.8749 11.9983 13.8749C10.7058 13.8734 9.46669 13.3593 8.55277 12.4454C7.63885 11.5315 7.12476 10.2924 7.12327 8.99988Z" fill="#757575"/>
</g>
</svg>
