<svg width="24" height="24" viewBox="0 0 28 28" fill="none" xmlns="http://www.w3.org/2000/svg">
<g id="ri:more-fill">
<path id="Vector" d="M5.83333 11.666C4.55 11.666 3.5 12.716 3.5 13.9993C3.5 15.2827 4.55 16.3327 5.83333 16.3327C7.11667 16.3327 8.16667 15.2827 8.16667 13.9993C8.16667 12.716 7.11667 11.666 5.83333 11.666ZM22.1667 11.666C20.8833 11.666 19.8333 12.716 19.8333 13.9993C19.8333 15.2827 20.8833 16.3327 22.1667 16.3327C23.45 16.3327 24.5 15.2827 24.5 13.9993C24.5 12.716 23.45 11.666 22.1667 11.666ZM14 11.666C12.7167 11.666 11.6667 12.716 11.6667 13.9993C11.6667 15.2827 12.7167 16.3327 14 16.3327C15.2833 16.3327 16.3333 15.2827 16.3333 13.9993C16.3333 12.716 15.2833 11.666 14 11.666Z" fill="#757575"/>
</g>
</svg>
