<svg width="24" height="24" viewBox="0 0 24 24" fill="none" xmlns="http://www.w3.org/2000/svg">
<g id="Bulk/Action/Search">
<path id="Union" fill-rule="evenodd" clip-rule="evenodd" d="M16.0863 16.4778C14.8027 17.6934 13.074 18.4382 11.1724 18.4382C7.2112 18.4382 4 15.2061 4 11.2191C4 7.23209 7.2112 4 11.1724 4C15.1336 4 18.3448 7.23209 18.3448 11.2191C18.3448 12.5626 17.9802 13.8205 17.345 14.8978L20.7071 18.2818C21.0976 18.6749 21.0976 19.3121 20.7071 19.7052C20.3166 20.0983 19.6834 20.0983 19.2929 19.7052L16.0863 16.4778ZM16.3448 11.2191C16.3448 14.0943 14.0291 16.4252 11.1724 16.4252C8.31577 16.4252 6 14.0943 6 11.2191C6 8.34385 8.31577 6.01302 11.1724 6.01302C14.0291 6.01302 16.3448 8.34385 16.3448 11.2191Z" fill="#616161"/>
</g>
</svg>
