<svg width="24" height="24" viewBox="0 0 24 24" fill="none" xmlns="http://www.w3.org/2000/svg">
<g id="Bulk/Social/Share">
<g id="Vector">
<path d="M17.2497 13.5002C16.1406 13.5043 15.091 14.0021 14.3862 14.8584L10.3363 13.0299C10.4393 12.6961 10.4944 12.3494 10.4998 12.0002C10.495 11.6547 10.4417 11.3116 10.3416 10.9809L14.387 9.14348C15.7205 10.7129 18.0738 10.9041 19.6431 9.57058C21.2125 8.2371 21.4037 5.88383 20.0702 4.31446C18.7367 2.74509 16.3835 2.55384 14.8141 3.88736C13.9746 4.6007 13.4935 5.64872 13.4998 6.75031C13.4998 6.8568 13.5223 6.95731 13.5313 7.06154L9.07486 9.08424C8.41787 8.54886 7.59742 8.25454 6.74992 8.25025C4.67892 8.25025 3 9.92913 3 12.0002C3 14.0712 4.67888 15.7501 6.74992 15.7501C7.59376 15.7467 8.41119 15.4556 9.06737 14.9251L13.5313 16.9403C13.5223 17.0446 13.4998 17.1443 13.4998 17.2501C13.4998 19.3211 15.1786 21 17.2497 21C19.3207 21 20.9996 19.3211 20.9996 17.2501C20.9996 15.179 19.3207 13.5002 17.2497 13.5002ZM17.2497 5.25037C18.0781 5.25037 18.7496 5.92194 18.7496 6.75035C18.7496 7.57875 18.0781 8.25032 17.2497 8.25032C16.4213 8.25032 15.7497 7.57875 15.7497 6.75035C15.7497 5.92194 16.4213 5.25037 17.2497 5.25037ZM6.74992 13.5002C5.92152 13.5002 5.24995 12.8286 5.24995 12.0002C5.24995 11.1718 5.92152 10.5002 6.74992 10.5002C7.57833 10.5002 8.2499 11.1718 8.2499 12.0002C8.2499 12.8286 7.57833 13.5002 6.74992 13.5002ZM17.2497 18.7501C16.4213 18.7501 15.7497 18.0785 15.7497 17.2501C15.7497 16.4216 16.4213 15.7501 17.2497 15.7501C18.0781 15.7501 18.7496 16.4216 18.7496 17.2501C18.7496 18.0785 18.0781 18.7501 17.2497 18.7501Z" fill="#757575"/>
</g>
</g>
</svg>
