<svg width="29" height="28" viewBox="0 0 29 28" fill="none" xmlns="http://www.w3.org/2000/svg">
<g id="uil:share">
<path id="Vector" d="M25.8255 13.1749L16.4922 3.84158C16.329 3.67847 16.1211 3.5674 15.8949 3.5224C15.6686 3.47741 15.434 3.50051 15.2209 3.58879C15.0077 3.67708 14.8255 3.82657 14.6973 4.01838C14.5691 4.21019 14.5007 4.43571 14.5007 4.66642V8.80225C11.3137 9.09718 8.35142 10.5708 6.19362 12.9346C4.03583 15.2985 2.8378 18.3825 2.83398 21.5831V23.3331C2.83417 23.5753 2.90971 23.8114 3.05014 24.0087C3.19056 24.206 3.38891 24.3547 3.61766 24.4342C3.84642 24.5137 4.09425 24.5201 4.32677 24.4524C4.55929 24.3847 4.76498 24.2463 4.91532 24.0564C6.0583 22.6972 7.4607 21.5794 9.04059 20.7683C10.6205 19.9572 12.3462 19.4692 14.1168 19.3326C14.1751 19.3256 14.321 19.3139 14.5007 19.3023V23.3331C14.5007 23.5638 14.5691 23.7893 14.6973 23.9811C14.8255 24.1729 15.0077 24.3224 15.2209 24.4107C15.434 24.499 15.6686 24.5221 15.8949 24.4771C16.1211 24.4321 16.329 24.321 16.4922 24.1579L25.8255 14.8246C26.0442 14.6058 26.1671 14.3091 26.1671 13.9998C26.1671 13.6904 26.0442 13.3937 25.8255 13.1749ZM16.834 20.5168V18.0831C16.834 17.7737 16.7111 17.4769 16.4923 17.2581C16.2735 17.0393 15.9767 16.9164 15.6673 16.9164C15.3698 16.9164 14.1553 16.9748 13.845 17.0156C10.7007 17.3053 7.70764 18.4999 5.22798 20.4549C5.50944 17.8818 6.73011 15.5028 8.6563 13.7736C10.5825 12.0444 13.0788 11.0864 15.6673 11.0831C15.9767 11.0831 16.2735 10.9602 16.4923 10.7414C16.7111 10.5226 16.834 10.2258 16.834 9.91642V7.48275L23.351 13.9998L16.834 20.5168Z" fill="#757575"/>
</g>
</svg>
