<svg width="24" height="24" viewBox="0 0 24 24" fill="none" xmlns="http://www.w3.org/2000/svg">
<g id="Users">
<path id="Vector" d="M11.7352 14.7141C12.6775 13.9221 13.3533 12.8595 13.6711 11.6703C13.989 10.4812 13.9334 9.22305 13.5119 8.06658C13.0904 6.91011 12.3234 5.91124 11.315 5.20545C10.3066 4.49966 9.10548 4.12109 7.8746 4.12109C6.64371 4.12109 5.44261 4.49966 4.43418 5.20545C3.42575 5.91124 2.65879 6.91011 2.23731 8.06658C1.81583 9.22305 1.76024 10.4812 2.07805 11.6703C2.39587 12.8595 3.07173 13.9221 4.01397 14.7141C2.54264 15.3794 1.26758 16.4126 0.311784 17.7141C0.13525 17.9546 0.0615074 18.2555 0.10678 18.5504C0.152052 18.8453 0.312631 19.1102 0.553191 19.2867C0.79375 19.4633 1.09459 19.537 1.38952 19.4917C1.68445 19.4465 1.94931 19.2859 2.12585 19.0453C2.78748 18.1417 3.65281 17.4068 4.65163 16.9002C5.65046 16.3936 6.75464 16.1296 7.8746 16.1296C8.99455 16.1296 10.0987 16.3936 11.0976 16.9002C12.0964 17.4068 12.9617 18.1417 13.6233 19.0453C13.7999 19.286 14.0648 19.4467 14.3598 19.4921C14.6548 19.5374 14.9558 19.4637 15.1965 19.2872C15.4372 19.1107 15.5979 18.8458 15.6432 18.5507C15.6886 18.2557 15.6149 17.9548 15.4383 17.7141C14.482 16.4128 13.2067 15.3796 11.7352 14.7141ZM4.1246 10.126C4.1246 9.38428 4.34453 8.65926 4.75659 8.04257C5.16864 7.42589 5.75431 6.94524 6.43953 6.66141C7.12476 6.37758 7.87876 6.30332 8.60618 6.44802C9.33361 6.59271 10.0018 6.94986 10.5262 7.47431C11.0507 7.99876 11.4078 8.66694 11.5525 9.39437C11.6972 10.1218 11.623 10.8758 11.3391 11.561C11.0553 12.2462 10.5747 12.8319 9.95798 13.244C9.3413 13.656 8.61628 13.876 7.8746 13.876C6.88003 13.876 5.92621 13.4809 5.22295 12.7776C4.51968 12.0743 4.1246 11.1205 4.1246 10.126ZM23.4465 19.2825C23.3274 19.37 23.1922 19.4332 23.0487 19.4685C22.9051 19.5037 22.7561 19.5104 22.61 19.488C22.4639 19.4656 22.3236 19.4147 22.1972 19.3381C22.0709 19.2615 21.9608 19.1607 21.8733 19.0416C21.2101 18.1397 20.3444 17.406 19.3459 16.8996C18.3475 16.3932 17.2441 16.1282 16.1246 16.126C15.8262 16.126 15.5401 16.0074 15.3291 15.7965C15.1181 15.5855 14.9996 15.2993 14.9996 15.001C14.9996 14.7026 15.1181 14.4164 15.3291 14.2055C15.5401 13.9945 15.8262 13.876 16.1246 13.876C16.6576 13.875 17.1843 13.7604 17.6695 13.5399C18.1548 13.3194 18.5874 12.9979 18.9386 12.597C19.2899 12.1961 19.5516 11.7249 19.7063 11.2149C19.8611 10.7048 19.9054 10.1676 19.8362 9.63915C19.767 9.11065 19.5859 8.60298 19.3051 8.14997C19.0242 7.69697 18.65 7.30904 18.2074 7.01205C17.7648 6.71506 17.264 6.51583 16.7383 6.42765C16.2127 6.33946 15.6743 6.36435 15.159 6.50065C15.0151 6.54228 14.8643 6.55476 14.7155 6.53733C14.5667 6.5199 14.4228 6.47293 14.2924 6.39917C14.162 6.32541 14.0477 6.22635 13.9561 6.10779C13.8645 5.98924 13.7975 5.85358 13.759 5.70879C13.7206 5.56399 13.7114 5.41297 13.7321 5.26459C13.7528 5.1162 13.8029 4.97345 13.8795 4.8447C13.9561 4.71595 14.0577 4.6038 14.1782 4.51483C14.2988 4.42585 14.4359 4.36186 14.5815 4.32659C15.8991 3.97746 17.2963 4.08739 18.5431 4.63828C19.7899 5.18916 20.812 6.14817 21.4411 7.35742C22.0701 8.56666 22.2687 9.95407 22.0041 11.2912C21.7395 12.6284 21.0274 13.8356 19.9852 14.7141C21.4566 15.3794 22.7316 16.4126 23.6874 17.7141C23.8627 17.9543 23.9357 18.2541 23.8906 18.548C23.8454 18.8419 23.6858 19.106 23.4465 19.2825Z" fill="#757575"/>
</g>
</svg>
