<svg width="24" height="24" viewBox="0 0 24 24" fill="none" xmlns="http://www.w3.org/2000/svg">
<g id="Bulk/Misc/WA">
<g id="Vector">
<path d="M12.375 2.75C7.06778 2.75 2.75 7.06746 2.75 12.375C2.75 14.2424 3.28545 16.0427 4.30184 17.6061L2.80201 21.1058C2.69862 21.3464 2.75251 21.6265 2.93799 21.812C3.06081 21.9348 3.22498 22 3.39167 22C3.47689 22 3.56305 21.9831 3.64451 21.948L7.14423 20.4478C8.70735 21.4649 10.5076 22 12.375 22C17.6825 22 22 17.6825 22 12.375C22 7.06746 17.6825 2.75 12.375 2.75ZM17.3153 15.8202C17.3153 15.8202 16.5151 16.8466 15.9368 17.0866C14.4667 17.6951 12.3913 17.0866 10.027 14.723C7.66339 12.3587 7.05462 10.2833 7.66339 8.81325C7.90339 8.23424 8.9298 7.43467 8.9298 7.43467C9.20802 7.21785 9.6404 7.2448 9.88979 7.4942L11.0509 8.65534C11.3003 8.90474 11.3003 9.3133 11.0509 9.5627L10.3222 10.2908C10.3222 10.2908 10.027 11.1769 11.7998 12.9502C13.5725 14.723 14.4592 14.4278 14.4592 14.4278L15.1873 13.6991C15.4367 13.4497 15.8453 13.4497 16.0947 13.6991L17.2558 14.8602C17.5052 15.1096 17.5321 15.5413 17.3153 15.8202Z" fill="#933393"/>
</g>
</g>
</svg>
